<svg width="380" height="380" viewBox="0 0 380 380" fill="none" xmlns="http://www.w3.org/2000/svg">
<g clip-path="url(#clip0)">
<rect width="380" height="380" fill="#F4D150"/>
<circle cx="190" cy="191" r="190" fill="#F4D150"/>
<g clip-path="url(#clip1)">
<path d="M244 358.409C229.6 338.409 218.333 299.742 217 280.409L148.5 250.908L120 358.409H244Z" fill="#F9C9B6" stroke="black" stroke-width="4"/>
<mask id="mask0" mask-type="alpha" maskUnits="userSpaceOnUse" x="120" y="250" width="124" height="119">
<path d="M244 368.409C229.6 348.409 218.333 299.742 217 280.409L148.5 250.908L120 368.409H244Z" fill="#AC6651"/>
</mask>
<g mask="url(#mask0)">
<g style="mix-blend-mode:multiply">
<ellipse cx="214" cy="248.908" rx="59" ry="54" fill="black"/>
</g>
</g>
<mask id="path-5-inside-1" fill="white">
<path fill-rule="evenodd" clip-rule="evenodd" d="M122.374 221.134C122.706 223.329 123.133 225.528 123.66 227.726C147.214 255.766 189.581 291.66 218.542 284.722C251.582 276.806 265.12 241.337 274.826 191.508C274.826 186.602 273.092 181.237 270.003 175.804L258.865 129.316C258.508 126.381 257.981 123.435 257.275 120.491C247.274 78.7476 205.326 53.0156 163.583 63.0169C122.009 72.9778 96.3164 114.626 105.989 156.202L105.987 156.202L121.589 221.322L122.374 221.134Z"/>
</mask>
<path fill-rule="evenodd" clip-rule="evenodd" d="M122.374 221.134C122.706 223.329 123.133 225.528 123.66 227.726C147.214 255.766 189.581 291.66 218.542 284.722C251.582 276.806 265.12 241.337 274.826 191.508C274.826 186.602 273.092 181.237 270.003 175.804L258.865 129.316C258.508 126.381 257.981 123.435 257.275 120.491C247.274 78.7476 205.326 53.0156 163.583 63.0169C122.009 72.9778 96.3164 114.626 105.989 156.202L105.987 156.202L121.589 221.322L122.374 221.134Z" fill="#F9C9B6"/>
<path d="M122.374 221.134L126.33 220.537L125.679 216.229L121.442 217.244L122.374 221.134ZM123.66 227.726L119.77 228.658L119.99 229.576L120.597 230.299L123.66 227.726ZM218.542 284.722L217.61 280.832L218.542 284.722ZM274.826 191.508L278.752 192.273L278.826 191.894V191.508H274.826ZM270.003 175.804L266.113 176.736L266.245 177.288L266.526 177.781L270.003 175.804ZM258.865 129.316L254.894 129.799L254.922 130.026L254.975 130.248L258.865 129.316ZM257.275 120.491L253.385 121.423V121.423L257.275 120.491ZM163.583 63.0169L162.651 59.127L163.583 63.0169ZM105.989 156.202L106.923 160.091L110.785 159.164L109.885 155.295L105.989 156.202ZM105.987 156.202L105.053 152.313L101.166 153.246L102.097 157.134L105.987 156.202ZM121.589 221.322L117.7 222.254L118.631 226.144L122.521 225.212L121.589 221.322ZM118.419 221.731C118.768 224.038 119.217 226.349 119.77 228.658L127.55 226.794C127.05 224.706 126.644 222.619 126.33 220.537L118.419 221.731ZM120.597 230.299C132.554 244.533 149.302 260.789 166.832 272.653C175.599 278.587 184.675 283.5 193.537 286.478C202.382 289.451 211.263 290.579 219.474 288.612L217.61 280.832C211.34 282.334 204.065 281.577 196.085 278.895C188.122 276.218 179.704 271.706 171.316 266.028C154.533 254.67 138.32 238.959 126.723 225.153L120.597 230.299ZM219.474 288.612C237.394 284.318 249.846 272.518 258.95 255.74C267.983 239.091 273.884 217.264 278.752 192.273L270.9 190.743C266.062 215.581 260.341 236.402 251.918 251.924C243.567 267.317 232.73 277.209 217.61 280.832L219.474 288.612ZM278.826 191.508C278.826 185.69 276.785 179.638 273.48 173.827L266.526 177.781C269.4 182.835 270.826 187.514 270.826 191.508H278.826ZM254.975 130.248L266.113 176.736L273.893 174.872L262.755 128.384L254.975 130.248ZM262.836 128.833C262.461 125.747 261.906 122.652 261.165 119.559L253.385 121.423C254.055 124.219 254.556 127.014 254.894 129.799L262.836 128.833ZM261.165 119.559C250.649 75.6673 206.543 48.611 162.651 59.127L164.515 66.9069C204.11 57.4202 243.899 81.8279 253.385 121.423L261.165 119.559ZM162.651 59.127C118.937 69.6005 91.9225 113.392 102.093 157.108L109.885 155.295C100.71 115.86 125.081 76.355 164.515 66.9069L162.651 59.127ZM106.921 160.092L106.923 160.091L105.055 152.312L105.053 152.313L106.921 160.092ZM125.479 220.39L109.877 155.27L102.097 157.134L117.7 222.254L125.479 220.39ZM121.442 217.244L120.657 217.432L122.521 225.212L123.306 225.024L121.442 217.244Z" fill="black" mask="url(#path-5-inside-1)"/>
<g clip-path="url(#clip2)">
<path d="M243.389 358.409C228.989 338.409 217.722 299.742 216.389 280.409L147.889 250.908L119.389 358.409H243.389Z" fill="#F9C9B6" stroke="black" stroke-width="4"/>
<mask id="mask1" mask-type="alpha" maskUnits="userSpaceOnUse" x="119" y="250" width="125" height="119">
<path d="M243.389 368.409C228.989 348.409 217.722 299.742 216.389 280.409L147.889 250.908L119.389 368.409H243.389Z" fill="#AC6651"/>
</mask>
<g mask="url(#mask1)">
<g style="mix-blend-mode:multiply">
<ellipse cx="213.389" cy="248.908" rx="59" ry="54" fill="black"/>
</g>
</g>
<mask id="path-10-inside-2" fill="white">
<path fill-rule="evenodd" clip-rule="evenodd" d="M273.275 189.826C273.248 189.71 273.221 189.594 273.193 189.478C273.165 189.362 273.137 189.247 273.109 189.131L256.712 120.694C256.696 120.627 256.68 120.559 256.664 120.491C256.647 120.423 256.631 120.355 256.615 120.288L256.542 119.984L256.541 119.984C246.323 78.5397 204.546 53.0561 162.972 63.0169C121.397 72.9778 95.7051 114.626 105.378 156.202L105.376 156.202L122.367 227.12L122.381 227.117C132.984 268.021 174.451 293.058 215.719 283.17C256.987 273.283 282.606 232.173 273.521 190.905L273.533 190.902L273.275 189.826Z"/>
</mask>
<path fill-rule="evenodd" clip-rule="evenodd" d="M273.275 189.826C273.248 189.71 273.221 189.594 273.193 189.478C273.165 189.362 273.137 189.247 273.109 189.131L256.712 120.694C256.696 120.627 256.68 120.559 256.664 120.491C256.647 120.423 256.631 120.355 256.615 120.288L256.542 119.984L256.541 119.984C246.323 78.5397 204.546 53.0561 162.972 63.0169C121.397 72.9778 95.7051 114.626 105.378 156.202L105.376 156.202L122.367 227.12L122.381 227.117C132.984 268.021 174.451 293.058 215.719 283.17C256.987 273.283 282.606 232.173 273.521 190.905L273.533 190.902L273.275 189.826Z" fill="#F9C9B6"/>
<path d="M273.275 189.826L269.381 190.74L269.383 190.749L269.386 190.757L273.275 189.826ZM273.109 189.131L269.219 190.063L269.221 190.072L269.223 190.081L273.109 189.131ZM256.712 120.694L252.82 121.617L252.822 121.626L256.712 120.694ZM256.615 120.288L252.725 121.22L252.727 121.23L256.615 120.288ZM256.542 119.984L260.432 119.052L259.5 115.164L255.612 116.094L256.542 119.984ZM256.541 119.984L252.657 120.942L253.608 124.799L257.471 123.875L256.541 119.984ZM162.972 63.0169L162.04 59.127L162.972 63.0169ZM105.378 156.202L106.312 160.091L110.174 159.164L109.274 155.295L105.378 156.202ZM105.376 156.202L104.442 152.313L100.555 153.246L101.486 157.134L105.376 156.202ZM122.367 227.12L118.477 228.052L119.41 231.944L123.301 231.01L122.367 227.12ZM122.381 227.117L126.253 226.113L125.268 222.31L121.448 223.227L122.381 227.117ZM215.719 283.17L214.787 279.28H214.787L215.719 283.17ZM273.521 190.905L272.589 187.015L268.77 187.93L269.615 191.765L273.521 190.905ZM273.533 190.902L274.465 194.792L278.355 193.86L277.423 189.97L273.533 190.902ZM277.169 188.911C277.141 188.79 277.112 188.668 277.083 188.546L269.303 190.41C269.329 190.52 269.355 190.63 269.381 190.74L277.169 188.911ZM277.083 188.546C277.054 188.425 277.024 188.303 276.995 188.182L269.223 190.081C269.25 190.19 269.277 190.3 269.303 190.41L277.083 188.546ZM252.822 121.626L269.219 190.063L276.999 188.199L260.602 119.762L252.822 121.626ZM260.604 119.772C260.588 119.702 260.571 119.631 260.554 119.559L252.774 121.423C252.789 121.487 252.805 121.551 252.82 121.617L260.604 119.772ZM260.554 119.559C260.537 119.488 260.519 119.417 260.502 119.345L252.727 121.23C252.743 121.294 252.758 121.358 252.774 121.423L260.554 119.559ZM252.652 120.916L252.725 121.22L260.505 119.356L260.432 119.052L252.652 120.916ZM257.471 123.875L257.472 123.874L255.612 116.094L255.61 116.094L257.471 123.875ZM260.424 119.027C249.68 75.4486 205.754 48.6535 162.04 59.127L163.904 66.9069C203.338 57.4587 242.965 81.6308 252.657 120.942L260.424 119.027ZM162.04 59.127C118.326 69.6005 91.3112 113.392 101.482 157.108L109.274 155.295C100.099 115.86 124.469 76.355 163.904 66.9069L162.04 59.127ZM106.31 160.092L106.312 160.091L104.444 152.312L104.442 152.313L106.31 160.092ZM126.257 226.188L109.266 155.27L101.486 157.134L118.477 228.052L126.257 226.188ZM121.448 223.227L121.434 223.23L123.301 231.01L123.315 231.006L121.448 223.227ZM118.509 228.12C129.658 271.132 173.259 297.457 216.651 287.06L214.787 279.28C175.644 288.659 136.31 264.911 126.253 226.113L118.509 228.12ZM216.651 287.06C260.043 276.664 286.98 233.439 277.427 190.045L269.615 191.765C278.232 230.908 253.931 269.902 214.787 279.28L216.651 287.06ZM272.602 187.012L272.589 187.015L274.453 194.795L274.465 194.792L272.602 187.012ZM269.386 190.757L269.643 191.834L277.423 189.97L277.165 188.894L269.386 190.757Z" fill="black" mask="url(#path-10-inside-2)"/>
</g>
<path d="M270.125 190.363C279.614 229.967 255.201 269.765 215.597 279.253C192.29 284.838 168.915 278.68 151.691 264.595C134.499 248.709 130.499 197.209 126.692 172.858C140.691 204.359 176.316 206.803 210.192 200.859C238.691 195.859 261.49 194.859 261.49 155.859C263.376 158.475 268.468 183.446 270.125 190.363Z" fill="#F9C9B6"/>
<path d="M192 223.074C196.94 229.52 204.427 236.662 215.976 235.034C227.525 233.405 232.664 225.438 231.149 218.987" stroke="black" stroke-width="4"/>
</g>
<path d="M178.489 23.9969L178.413 23.9887C168.567 22.9395 149.436 24.2414 130.171 31.6948C110.941 39.1344 91.7733 52.6204 81.4506 75.7978C71.0242 99.2083 70.7298 116.404 74.6409 132.488C76.6116 140.593 79.6608 148.457 83.1112 156.779C83.8236 158.497 84.5535 160.236 85.2938 161.999C88.1248 168.742 91.1078 175.847 93.8445 183.559L94.4604 185.294L92.7817 186.051C91.9865 186.41 91.1759 186.771 90.3548 187.137C86.8298 188.707 83.1096 190.364 79.5786 192.272C75.2237 194.625 71.3423 197.266 68.6478 200.393C65.9965 203.471 64.5183 206.984 64.8403 211.237C65.1682 215.566 67.3816 220.93 72.7035 227.597C77.9037 234.111 83.0894 236.704 87.8366 237.205C92.643 237.712 97.3421 236.11 101.583 233.578C105.817 231.048 109.445 227.678 112.033 224.903C113.322 223.522 114.339 222.304 115.031 221.435C115.376 221.001 115.64 220.655 115.815 220.42C115.903 220.303 115.968 220.214 116.011 220.156C116.032 220.127 116.047 220.105 116.057 220.092L116.066 220.078L116.067 220.077L178.489 23.9969ZM178.489 23.9969L178.566 23.9991C205.235 24.7835 225.967 35.3969 240.639 48.3493C254.695 60.7583 263.088 75.2231 265.825 85.0817C261.765 87.3991 254.811 89.3931 245.94 91.0285C236.265 92.8123 224.647 94.115 212.794 95.0436C189.087 96.9007 164.604 97.2491 153.168 97.0005L147.095 96.8685L151.902 100.583C154.399 102.513 157.724 103.856 161.24 104.8C164.782 105.752 168.659 106.335 172.372 106.667C176.196 107.009 179.924 107.089 183.012 107.01C172.426 115.172 158.951 121.448 145.664 126.1C130.318 131.473 115.394 134.62 105.835 136.021L103.686 136.336L104.177 138.452C105.662 144.855 108.008 153.559 110.485 162.75C112.047 168.547 113.661 174.537 115.145 180.266C117.073 187.708 118.785 194.726 119.906 200.396C120.467 203.232 120.873 205.699 121.087 207.696C121.307 209.752 121.299 211.113 121.148 211.844C120.276 216.084 120.745 220.145 121.833 224.17L119.408 220.191L117.824 217.592L116.068 220.076L178.489 23.9969Z" fill="black" stroke="#171921" stroke-width="4"/>
<path d="M89.5673 185.59L91.9593 184.459C91.9593 184.459 104.829 197.559 107.587 201.006C110.345 204.454 118.16 220.083 118.16 220.083L116.795 222.738C116.795 222.738 110.894 209.74 105.608 201.006C100.322 192.273 89.5673 185.59 89.5673 185.59Z" fill="#C4C4C4"/>
<path d="M225 129.214C230.667 126.548 244 124.114 252 135.714" stroke="black" stroke-width="4" stroke-linecap="round"/>
<path d="M149.579 154.521C151.65 148.61 159.261 137.396 173.142 139.822" stroke="black" stroke-width="4" stroke-linecap="round"/>
<path d="M128.466 201.611L129 201.036V200.251V166.749V165.63L128.046 165.045C124.312 162.754 119.772 161.5 115.08 161.5C109.44 161.5 104.159 163.247 100.398 166.795C96.5942 170.382 94.5421 175.627 95.0869 182.166C95.6179 188.538 97.7569 193.227 101.305 196.343C101.013 197.342 100.927 198.42 101.062 199.553C101.452 202.822 103.104 205.177 105.657 206.628C108.091 208.011 111.206 208.5 114.524 208.5C120.003 208.5 124.808 205.553 128.466 201.611Z" stroke="black" stroke-width="4"/>
<path fill-rule="evenodd" clip-rule="evenodd" d="M134.972 182.484C135.043 181.832 135.08 181.17 135.08 180.5C135.08 170.283 125.573 163.5 115.08 163.5C104.587 163.5 96.0801 170 97.08 182C97.6364 188.677 100.026 193.072 103.731 195.717C103.142 196.741 102.885 197.944 103.048 199.317C103.677 204.598 108.186 206.5 114.524 206.5C125.629 206.5 134.416 192.453 134.972 182.484Z" fill="#F9C9B6"/>
<path d="M119.5 172C115.5 170.167 106.7 169.2 103.5 180" stroke="#171921" stroke-width="4"/>
<path d="M109 172.5C111.167 174.333 115.3 180 114.5 188" stroke="#171921" stroke-width="4"/>
<ellipse cx="174.626" cy="160.403" rx="9" ry="13.5" transform="rotate(-6.77646 174.626 160.403)" fill="black"/>
<ellipse cx="238.626" cy="150.403" rx="9" ry="13.5" transform="rotate(-6.27568 238.626 150.403)" fill="black"/>
<path d="M213.947 169.5C213.947 183.5 220.947 194.5 220.947 194.5C220.947 194.5 217.447 200.5 207.447 198.5" stroke="#171921" stroke-width="4"/>
<path d="M145.83 155.752L111.33 162.377" stroke="black" stroke-width="4" stroke-linecap="round"/>
<path d="M141.818 139.192C140.948 135.733 143.27 132.284 146.802 131.787L185.518 126.346C188.8 125.885 191.834 128.171 192.295 131.453L197.862 171.063C198.323 174.345 196.037 177.379 192.755 177.84L158.283 182.685C155.246 183.112 152.377 181.18 151.629 178.207L141.818 139.192Z" stroke="black" stroke-width="4"/>
<path d="M264.081 122.216C263.964 118.651 260.781 115.975 257.249 116.472L218.533 121.913C215.251 122.374 212.965 125.408 213.426 128.689L218.993 168.3C219.454 171.582 222.488 173.868 225.77 173.407L260.242 168.562C263.279 168.135 265.505 165.488 265.404 162.423L264.081 122.216Z" stroke="black" stroke-width="4"/>
<path d="M194.83 150.377L216.83 146.877" stroke="black" stroke-width="4"/>
<path d="M192.601 357.679C192.601 357.679 192.601 357.679 193.83 356.101L192.601 357.679L194.323 359.02L195.509 357.188L195.509 357.188L195.511 357.185L195.52 357.171L195.561 357.108C195.572 357.091 195.585 357.072 195.599 357.05C195.634 356.998 195.677 356.933 195.73 356.854C195.88 356.629 196.105 356.296 196.4 355.87C196.988 355.02 197.853 353.803 198.948 352.347C201.142 349.433 204.246 345.583 207.902 341.819C211.567 338.046 215.728 334.419 220.028 331.894C224.344 329.361 228.607 328.05 232.563 328.583C275.002 334.306 306.232 353.103 326.504 381.102H53.2046C69.5043 351.76 92.6879 333.083 130.275 324.514C131.876 324.148 134.054 324.259 136.777 324.892C139.472 325.519 142.545 326.62 145.858 328.077C152.485 330.99 159.883 335.237 166.834 339.637C173.775 344.031 180.221 348.543 184.934 351.961C187.289 353.668 189.209 355.1 190.539 356.105C191.204 356.607 191.721 357.001 192.072 357.27C192.247 357.405 192.38 357.507 192.469 357.576L192.569 357.654L192.594 357.673L192.6 357.678L192.601 357.679Z" fill="black" stroke="black" stroke-width="4"/>
<path d="M118.443 327.186L123.609 307.954C123.819 307.176 124.826 306.956 125.37 307.551C140.234 323.815 158.99 323.178 165.215 322.431C166.06 322.33 166.722 323.255 166.325 324.008L153.168 348.961C152.966 349.343 152.554 349.553 152.13 349.465C148.182 348.643 128.508 343.834 118.559 327.968C118.413 327.736 118.372 327.451 118.443 327.186Z" fill="white" stroke="black" stroke-width="4"/>
<path d="M249.025 327.083L237.444 307.6C237.051 306.939 236.082 306.95 235.663 307.595C229.926 316.431 220.032 320.502 216.572 321.704C215.949 321.92 215.664 322.66 216 323.227L229.503 346.042C229.704 346.382 230.085 346.567 230.465 346.458C232.6 345.851 239.925 342.787 249.012 328.123C249.207 327.808 249.214 327.402 249.025 327.083Z" fill="white" stroke="black" stroke-width="4"/>
<path d="M175.33 344.602L166.33 323.102L159.33 338.102L175.33 344.602Z" fill="black" stroke="black" stroke-width="4" stroke-linejoin="round"/>
<path d="M206.83 343.602L215.83 322.102L222.83 337.102L206.83 343.602Z" fill="black" stroke="black" stroke-width="4" stroke-linejoin="round"/>
<path d="M136.33 304.102L124.33 307.102L134.33 313.602L136.33 304.102Z" fill="black" stroke="black" stroke-width="4" stroke-linejoin="round"/>
<path d="M225.83 304.102L236.83 307.102L229.83 313.602L225.83 304.102Z" fill="black" stroke="black" stroke-width="4" stroke-linejoin="round"/>
</g>
<defs>
<clipPath id="clip0">
<rect width="380" height="380" fill="white"/>
</clipPath>
<clipPath id="clip1">
<rect width="200" height="320" fill="white" transform="translate(90 38.9082)"/>
</clipPath>
<clipPath id="clip2">
<rect width="200" height="320" fill="white" transform="translate(89.3887 38.9082)"/>
</clipPath>
</defs>
</svg>
